<?xml version="1.0" ?><!DOCTYPE svg  PUBLIC '-//W3C//DTD SVG 1.1//EN'  'http://www.w3.org/Graphics/SVG/1.1/DTD/svg11.dtd'><svg class="icon" height="91.22px" version="1.1" viewBox="0 0 2245 1024" width="200px" xmlns="http://www.w3.org/2000/svg"><path d="M2202.559908 722.231911c-7.654771-10.631627-15.309542-20.497776-21.645991-28.36518v-5.145707c0-1.658534-0.255159-3.317067-0.425265-4.933075v-1.573481c0-1.743587-0.340212-3.487174-0.595371-5.188234s-0.552845-3.402121-0.893057-5.060654l-0.255159-1.445901c-0.297686-1.658534-0.637898-3.359594-1.020636-4.975601s-0.893057-3.402121-1.360849-5.060655l-0.382738-1.275795c-0.467792-1.658534-0.935583-3.317067-1.488428-4.890548s-1.190742-3.317067-1.871166-4.933075l-0.425265-1.148215c-0.637898-1.616007-1.318322-3.232014-2.041272-4.890549s-1.488428-3.061908-2.253905-4.550336l-0.595371-1.063163c-0.808004-1.658534-1.70106-3.274541-2.636644-4.890548s-1.70106-2.764223-2.636643-4.25265l-0.297686-0.510318c-0.85053-1.360848-1.743587-2.721696-2.67917-4.040019l-0.595371-0.765477-1.148215-1.57348c-1.275795-1.70106-2.636643-3.274541-4.252651-5.060655l-0.97811-1.148215c-1.913693-2.126325-3.954965-4.252651-6.20887-6.378976l-2.083798-1.95622-1.488428-1.318321c7.824877-113.503246-33.59594-256.647466-47.204422-300.067029 0.340212-10.376468 0.97811-26.111275 1.913693-36.019951a173.890885 173.890885 0 0 0 26.876752-39.124386c41.420817-78.206245-0.893057-139.401888-39.634704-161.600724l-1.318322-0.722951a102.786566 102.786566 0 0 0-48.650323-12.757952 96.790329 96.790329 0 0 0-71.572111 32.872989 119.074218 119.074218 0 0 0-27.684755-3.232014c-50.776649 0-96.577696 30.321399-136.084821 90.156193a425.562749 425.562749 0 0 0-34.701629 64.810396c-25.218218 28.195074-53.200659 41.931135-85.350698 41.931136a105.763421 105.763421 0 0 1-35.977425-6.166344 58.133734 58.133734 0 0 0-19.774825-4.805495c-16.670391-3.65728-66.426403-43.972408-112.440083-95.046742-7.144453-88.540186-53.413292-129.280579-75.909814-144.079804A103.46699 103.46699 0 0 0 1359.046654 0.004253c-61.365749 0-122.433812 50.436437-150.713938 77.398241a281.142734 281.142734 0 0 0-54.731614 38.273856 49.288221 49.288221 0 0 0-5.528446 5.741078 46.268839 46.268839 0 0 0-3.699806 4.592863 70.806633 70.806633 0 0 0-91.857254 75.612128l-1.233269 0.637898-29.258236-10.886786A71.019266 71.019266 0 0 0 927.104929 243.808714a70.84916 70.84916 0 0 0-97.810965 58.814158l-29.768554-13.948694a71.061792 71.061792 0 0 0-99.512025 49.756012 70.84916 70.84916 0 0 0-85.393225 69.318206V408.258714l-12.757952 5.826131a56.985519 56.985519 0 0 0-10.163835 5.868658c-1.445901 1.063163-2.636643 2.041272-3.614753 2.891803a243.33667 243.33667 0 0 1-28.067494 11.482156l-2.126326 0.850531c-39.847336 14.1188-103.679623 32.872989-189.880851 55.752249-102.063615 27.089385-202.256064 51.031808-212.632532 53.455819-66.34135 13.26827-99.256866 47.799793-115.161779 74.506439a154.583851 154.583851 0 0 0-21.263253 81.948578l-0.722951 0.935583-1.190742 1.530954c-1.70106 2.296431-3.274541 4.592863-4.252651 6.506556l-0.978109 1.70106c-1.063163 1.82864-2.083799 3.65728-2.976856 5.528446l-0.85053 1.82864c-1.063163 2.211378-1.913693 4.252651-2.67917 6.251396l-0.595371 1.70106c-0.637898 1.786113-1.148216 3.5297-1.658534 5.35834l-0.425265 1.530954c-0.595371 2.338958-1.063163 4.50781-1.403374 6.549082a59.919848 59.919848 0 0 0-1.190743 13.821115 61.876067 61.876067 0 0 0 2.551591 13.651008c13.906168 44.695358 46.779157 85.053013 97.810965 119.499483 41.038079 27.897388 95.131795 52.988027 160.79272 74.591493a1295.399911 1295.399911 0 0 0 196.004668 46.991789 59.196897 59.196897 0 0 0 10.5891 0.595371 58.516473 58.516473 0 0 0 9.398358 6.123817 55.284458 55.284458 0 0 0 11.482157 4.677916 59.28195 59.28195 0 0 0 16.372705 2.338958h85.053013a59.239423 59.239423 0 0 0 14.756697-1.871166 58.899211 58.899211 0 0 0 14.714172 1.871166h55.709723a59.919848 59.919848 0 0 0 17.946186-2.80675 59.962374 59.962374 0 0 0 18.116291 2.80675h62.216279a58.644052 58.644052 0 0 0 13.310797-1.530954l1.360848-0.297686a61.153116 61.153116 0 0 0 14.841751 1.82864h81.863524a59.919848 59.919848 0 0 0 18.073766-2.80675 61.620908 61.620908 0 0 0 17.988712 2.80675h52.392656a60.26006 60.26006 0 0 0 13.523429-1.573481 58.346367 58.346367 0 0 0 11.056891-3.742333 59.537109 59.537109 0 0 0 24.580321 5.315814h209.655677a61.195643 61.195643 0 0 0 13.565955-1.573481 59.537109 59.537109 0 0 0 7.569718-2.296431c12.120054 4.465283 25.728536 4.677916 42.994298 4.975601 12.757952 0 31.342035 0.340212 54.689087 0.340212 84.500168 0 211.484316-1.445901 212.632532-1.445901a59.537109 59.537109 0 0 0 32.107513-9.823623 59.026791 59.026791 0 0 0 32.74541 9.823623h55.709723a59.239423 59.239423 0 0 0 26.196328-6.081291 59.239423 59.239423 0 0 0 26.196328 6.081291h65.533346a59.069317 59.069317 0 0 0 27.642229-6.804241 161.600724 161.600724 0 0 0 34.021206 3.146961c3.954965 0 7.90993 0 11.779842-0.255159 13.778588-0.552845 26.196328-1.913693 32.575304-2.721696h3.317067a497.900337 497.900337 0 0 0 67.532092-11.056892l1.275796-0.297685a230.961456 230.961456 0 0 0 23.304525-7.697298c14.841751-5.528446 33.170675-12.757952 44.397673-17.393341a244.782571 244.782571 0 0 0 70.211262-19.817352c4.762969-2.083799 8.845513-3.997492 11.907422-5.485919 46.779157-12.375213 79.60962-54.306349 99.299392-88.114922 1.956219-3.274541 3.614753-6.293923 4.975601-8.845513 0.935583-1.743587 1.743587-3.317067 2.424011-4.635389 1.105689-2.126325 1.871166-3.742333 2.296431-4.677916a59.537109 59.537109 0 0 0 5.443393-19.009348c3.614753-29.045604-9.058146-60.897957-41.973662-106.656478z" fill="#FFFFFF"/><path d="M1351.221777 972.968192c-78.291298 0-78.886669-0.595371-82.203737-3.954965a6.038764 6.038764 0 0 1-1.063163-1.275795c-1.786113-2.594117-7.782351-9.313305-14.288906-9.313305-5.698552 0-11.056892 5.315813-14.544065 9.781097a8.505301 8.505301 0 0 1-6.719188 3.317067h-209.655676a8.505301 8.505301 0 0 1-6.33645-2.849276c-2.594117-2.849276-11.184471-10.248888-19.859878-10.248888-5.783605 0-11.099418 3.189488-16.245126 9.781097a8.505301 8.505301 0 0 1-6.676661 3.317067h-52.435183a8.505301 8.505301 0 0 1-6.93182-3.572226 17.010603 17.010603 0 0 0-11.014365-6.634135 16.755444 16.755444 0 0 0-11.652263 7.229506 8.505301 8.505301 0 0 1-6.421503 2.976855h-81.906051a8.505301 8.505301 0 0 1-6.038764-2.509064 17.733553 17.733553 0 0 0-9.993729-4.805495 8.505301 8.505301 0 0 0-6.846767 4.252651 8.505301 8.505301 0 0 1-6.634135 3.189488h-62.216279a8.505301 8.505301 0 0 1-6.038764-2.509064 22.666628 22.666628 0 0 0-13.39585-6.251397 13.183217 13.183217 0 0 0-10.078782 5.698552 8.505301 8.505301 0 0 1-6.549082 3.061909h-55.709723a8.505301 8.505301 0 0 1-6.804241-3.402121 8.505301 8.505301 0 0 0-6.293923-2.424011 22.15631 22.15631 0 0 0-11.652263 4.252651 8.505301 8.505301 0 0 1-4.720442 1.445901h-85.053013a8.505301 8.505301 0 0 1-7.612244-4.720442c-3.65728-7.272033-11.737316-17.393341-17.265762-17.393341-2.806749 0-5.698552 3.019382-7.612244 5.613499a8.505301 8.505301 0 0 1-6.804242 3.40212 6.08129 6.08129 0 0 1-1.233268 0c-14.926804-2.168852-366.238273-54.90172-413.14501-205.700711a8.88804 8.88804 0 0 1-0.510318-4.252651 32.660357 32.660357 0 0 1 21.263253-25.005586c-3.019382-15.81986-6.123817-48.777903 11.56721-78.418877 15.564701-26.068748 43.291984-43.164404 82.373843-50.776649 164.620106-38.95428 433.770365-109.208068 453.970456-131.83217a8.505301 8.505301 0 0 1 2.806749-2.041272C813.218945 373.897297 1102.271609 239.173325 1118.474208 223.140832l0.510318-0.510318c25.175692-21.263253 62.428911-55.497091 66.383876-65.448294a8.88804 8.88804 0 0 1 2.253905-3.189488c1.233269-1.063163 29.21571-25.813589 50.096224-33.766046C1247.83984 109.935272 1308.95043 51.03606 1359.046654 51.03606a51.924864 51.924864 0 0 1 42.526507 20.625356c11.099418 5.656025 57.623416 34.701629 58.686578 124.857823 31.129403 36.317636 114.821567 123.326869 159.049134 125.708353a8.505301 8.505301 0 0 1 3.061909 0.72295 149.225511 149.225511 0 0 0 56.220041 10.376468c34.021205 0 84.287536-11.43963 129.365633-65.916085 5.783605-14.671645 53.796031-130.98164 126.728989-130.98164A80.800362 80.800362 0 0 1 1981.762287 153.099676c6.974347-17.010603 23.176946-46.098733 52.265077-46.098733a52.009917 52.009917 0 0 1 24.622847 6.761714c0.765477 0.425265 52.860447 31.129403 19.902405 93.558314a115.0342 115.0342 0 0 1-23.602211 32.702884c-7.527192 7.357086-9.355831 9.143199-11.397104 73.443276 6.464029 19.732299 65.065555 203.659439 43.972408 319.331537a61.153116 61.153116 0 0 1 28.875497 20.455249c11.184471 14.671645 15.437122 34.318891 12.757952 58.43142 16.032493 18.62661 68.382622 81.991104 65.065555 111.759659a7.654771 7.654771 0 0 1-0.765477 2.721696c-1.403375 2.934329-34.531523 71.487057-80.290044 79.864779-7.484665 3.869912-45.03557 22.581575-76.547712 23.261999-9.228252 3.784859-56.007409 22.836734-68.467675 25.983696-1.871166 0.425265-43.079351 9.866149-63.789759 10.078782a335.9594 335.9594 0 0 1-40.400181 2.891802 96.237484 96.237484 0 0 1-27.684756-3.104435 124.049819 124.049819 0 0 0-17.265762-1.445901 37.635958 37.635958 0 0 0-8.505301 0.722951 8.505301 8.505301 0 0 1-8.505301 7.484665h-65.065555a8.505301 8.505301 0 0 1-5.996237-2.509064l-7.357086-7.314559h-27.939915l-4.25265 6.038764a8.505301 8.505301 0 0 1-7.0594 3.784859H1628.792284a8.505301 8.505301 0 0 1-5.996237-2.509064l-7.357086-7.314559h-38.8267l-7.357086 6.93182a8.505301 8.505301 0 0 1-5.911184 2.509064c-1.190742 0-127.622046 1.445901-212.122214 1.445901zM2018.164977 233.219614a169.212969 169.212969 0 0 1 27.004331-39.294492c0.340212-0.382739 11.312051-11.652263 10.886786-24.622847a26.40896 26.40896 0 0 0-10.248888-18.966822c-6.378976-5.698552-10.546574-6.889294-12.757952-6.889294-5.868658 0-10.036256 8.505301-11.779842 13.395849 14.373959 40.612814 2.934329 63.534601-4.805496 73.358224z" fill="#191F1F"/><path d="M1359.046654 59.541362a43.929881 43.929881 0 0 1 37.168167 18.924295s55.709723 22.921787 55.709723 121.200543c0 0 108.102379 127.579519 167.086644 131.024166a157.348074 157.348074 0 0 0 59.749741 11.141945c38.741647 0 90.496406-13.480903 136.807771-70.083683 0 0 48.097479-126.814042 119.286851-126.814042 15.94744 0 33.085622 6.378976 51.031807 21.986204 0 0 14.076274-51.627179 48.182532-51.627179a43.674722 43.674722 0 0 1 20.625356 5.741079s45.843574 26.196328 16.372705 81.906051-32.74541 6.549082-36.019951 111.37692c0 0 68.765361 206.423662 42.526506 324.349665 0 0 52.435182 6.549082 42.526507 75.356969 0 0 68.765361 78.63151 65.490819 108.102379 0 0-32.74541 68.807887-75.314442 75.356969 0 0-42.526506 22.921787-75.35697 22.921787 0 0-55.709723 22.921787-68.807887 26.238855 0 0-42.526506 9.823623-62.258805 9.823623a327.454099 327.454099 0 0 1-39.80481 2.891802 89.007978 89.007978 0 0 1-25.728537-2.891802 133.448177 133.448177 0 0 0-19.221981-1.658534c-9.440884 0-18.413977 1.658534-17.010602 8.207616h-65.150608l-9.823623-9.823623h-36.019951l-6.549082 9.823623H1628.792284l-9.823623-9.823623h-45.843574l-9.823623 9.823623s-126.686463 1.445901-212.079687 1.445901c-42.526506 0-75.10181-0.382739-76.207499-1.445901 0 0-8.717934-13.098164-21.263254-13.098164-6.336449 0-13.608482 3.274541-21.263253 13.098164h-209.655676s-11.652263-13.098164-26.196328-13.098164c-7.272033 0-15.309542 3.274541-22.921787 13.098164h-52.520236s-7.272033-10.206362-17.946185-10.206362c-5.35834 0-11.524683 2.55159-18.073766 10.206362h-81.906051a26.196328 26.196328 0 0 0-16.032493-7.314559 17.010603 17.010603 0 0 0-13.480902 7.314559h-62.216279a31.512141 31.512141 0 0 0-19.434614-8.76046 21.263253 21.263253 0 0 0-16.627864 8.76046h-55.709723a17.010603 17.010603 0 0 0-13.098164-5.826132 29.768554 29.768554 0 0 0-16.372705 5.826132h-85.053013s-11.056892-22.113783-24.878006-22.113783c-4.592863 0-9.525937 2.424011-14.416486 9.015619 0 0-360.369615-52.435182-406.255715-199.87458 0 0 3.274541-19.647246 22.921787-19.647246 0 0-32.74541-104.827838 85.053013-127.579519 0 0 429.177502-101.595824 458.690898-134.341234 0 0 475.021076-216.204758 497.942863-239.169072 0 0 62.258805-52.392656 68.807887-68.765361 0 0 29.470869-26.238854 49.160642-32.787936 0 0 66.043664-68.04241 116.777786-68.04241m662.945708 195.664456c-3.317067-19.689772 29.470869-55.709723 29.470869-55.709724s29.470869-29.470869 0-55.709723c-7.357086-6.549082-13.523429-9.015619-18.584083-9.01562-15.224489 0-20.752935 22.113783-20.752935 22.113784 19.689772 52.435182-6.549082 72.295061-6.549082 72.295061l16.415231 26.238854M1359.046654 42.530759c-51.924864 0-111.589553 55.879829-126.261197 70.466421-21.688518 8.930566-47.884846 31.89488-51.031808 34.659103a17.010603 17.010603 0 0 0-4.465283 6.378976c-3.954965 8.207616-36.27511 38.784174-63.78976 62.088699l-0.893056 0.808004c-21.518412 18.116292-313.760564 154.243639-493.307474 235.894531a17.010603 17.010603 0 0 0-5.48592 3.954965c-4.720442 4.252651-35.722265 22.411469-235.129054 75.314443-105.508262 27.982441-208.082196 52.350129-214.588751 53.92361-41.378291 8.080036-70.891686 26.366434-87.51955 54.689087s-16.245125 58.984264-13.693535 77.610874a42.526506 42.526506 0 0 0-19.859879 28.960551 17.010603 17.010603 0 0 0 0.510319 7.824877c20.752935 66.681562 98.576442 122.646444 231.259141 166.321167A1239.987873 1239.987873 0 0 0 463.566009 966.716796a16.117546 16.117546 0 0 0 2.466538 0.212632 17.010603 17.010603 0 0 0 13.608482-6.804241 8.505301 8.505301 0 0 1 1.275795-1.530954 41.293238 41.293238 0 0 1 9.228252 12.077528 17.010603 17.010603 0 0 0 15.181962 9.355831h85.053013a17.308288 17.308288 0 0 0 9.440885-2.849276 13.906168 13.906168 0 0 1 6.93182-2.976855h0.340212a17.010603 17.010603 0 0 0 12.757952 5.826131h55.709723a17.010603 17.010603 0 0 0 12.970585-6.166343c0.85053-0.97811 2.381484-2.636643 3.572226-2.636643a14.841751 14.841751 0 0 1 7.527192 3.912438 15.607228 15.607228 0 0 0 11.907422 4.848022h62.216279a17.010603 17.010603 0 0 0 13.310796-6.378976 3.146961 3.146961 0 0 1 0.680424-0.765477 13.013111 13.013111 0 0 1 3.572227 2.253905 15.81986 15.81986 0 0 0 11.949948 4.890548h81.906051a17.010603 17.010603 0 0 0 12.757952-5.953711c3.317067-3.869912 5.188234-4.252651 5.188234-4.252651a10.333941 10.333941 0 0 1 4.252651 3.189488 16.032493 16.032493 0 0 0 13.778588 7.016874h52.435182a17.010603 17.010603 0 0 0 13.39585-6.591609c3.402121-4.252651 6.591608-6.506555 9.525937-6.506555a23.474632 23.474632 0 0 1 13.565956 7.484665 17.010603 17.010603 0 0 0 12.757952 5.613499h209.655676a17.010603 17.010603 0 0 0 13.565956-6.549082c4.040018-5.145707 6.889294-6.506555 7.824877-6.506556 1.786113 0 5.485919 3.104435 7.314559 5.656026a11.056892 11.056892 0 0 0 1.998746 2.424011c5.656025 5.656025 11.141945 5.741078 34.021205 6.123817 12.757952 0 30.874244 0.340212 54.008663 0.340212 84.542695 0 211.016525-1.445901 212.29232-1.445902a17.350815 17.350815 0 0 0 11.822369-4.975601l4.848021-4.848022H1611.781682l4.848021 4.848022a17.010603 17.010603 0 0 0 12.035002 4.975601h55.709723a17.010603 17.010603 0 0 0 14.1188-7.569718l1.530954-2.253905h19.859879l4.848022 4.848022a17.010603 17.010603 0 0 0 12.035001 4.975601h65.533346a17.010603 17.010603 0 0 0 13.39585-6.549082 13.565956 13.565956 0 0 0 1.105689-1.616007h2.296431a122.178653 122.178653 0 0 1 15.394596 1.233269 104.572679 104.572679 0 0 0 29.555922 3.317067 337.830567 337.830567 0 0 0 41.038078-2.934329c21.263253-0.340212 60.387639-9.228252 64.852922-10.248888h0.297686c12.545319-3.146961 55.62467-20.625356 68.04241-25.771063 31.384562-1.275795 67.574619-18.62661 77.355715-23.602211 48.437691-9.908676 81.480786-76.547712 85.053013-84.330062a17.010603 17.010603 0 0 0 1.530954-5.443393c1.190742-10.674153-1.105689-30.321399-34.616576-76.93045-11.779842-16.330178-23.602211-30.789191-30.06624-38.273855 2.168852-24.750427-2.764223-45.205676-14.756698-60.897957a68.340096 68.340096 0 0 0-26.111274-20.710409c17.6485-115.501991-36.657849-289.477929-44.950518-315.121412a468.344415 468.344415 0 0 1 3.784859-57.113099 11.694789 11.694789 0 0 1 5.018128-9.058145 121.710861 121.710861 0 0 0 25.175692-34.829209c36.742902-69.445785-22.368942-104.274994-23.00684-104.615206l-0.425265-0.255159a60.600272 60.600272 0 0 0-28.620339-7.739824c-27.004332 0-45.418309 21.263253-56.007409 42.058715A85.053013 85.053013 0 0 0 1934.98313 127.923984c-35.594686 0-69.445785 23.899897-100.532661 71.061792a384.184459 384.184459 0 0 0-33.59594 64.002392c-34.318891 41.038079-75.356969 61.83354-121.96602 61.83354a143.739592 143.739592 0 0 1-52.775395-9.61099 17.265762 17.265762 0 0 0-6.038764-1.488428c-36.445216-2.041272-110.143652-73.018011-151.096677-120.435066-2.041272-87.944815-46.779157-120.052328-61.535855-128.30247A60.770378 60.770378 0 0 0 1359.046654 42.530759z m671.153324 114.566408a17.988712 17.988712 0 0 1 3.146961-5.018128 23.899897 23.899897 0 0 1 6.804242 4.592863c7.144453 6.336449 7.314559 11.226998 7.399612 12.757952a29.385816 29.385816 0 0 1-8.207616 18.201345l-0.467792 0.510318c-0.722951 0.765477-1.573481 1.743587-2.509064 2.806749a117.415684 117.415684 0 0 0-6.166343-34.021205z"/><path d="M1351.221777 972.968192c-78.291298 0-78.886669-0.595371-82.203737-3.954965a6.038764 6.038764 0 0 1-1.063163-1.275795c-1.786113-2.594117-7.782351-9.313305-14.288906-9.313305-5.698552 0-11.056892 5.315813-14.544065 9.781097a8.505301 8.505301 0 0 1-6.719188 3.317067h-209.655676a8.505301 8.505301 0 0 1-6.33645-2.849276c-2.594117-2.849276-11.184471-10.248888-19.859878-10.248888-5.783605 0-11.099418 3.189488-16.245126 9.781097a8.505301 8.505301 0 0 1-6.676661 3.317067h-52.435183a8.505301 8.505301 0 0 1-6.93182-3.572226 17.010603 17.010603 0 0 0-11.014365-6.634135 16.755444 16.755444 0 0 0-11.652263 7.229506 8.505301 8.505301 0 0 1-6.421503 2.976855h-81.906051a8.505301 8.505301 0 0 1-6.038764-2.509064 17.733553 17.733553 0 0 0-9.993729-4.805495 8.505301 8.505301 0 0 0-6.846767 4.252651 8.505301 8.505301 0 0 1-6.634135 3.189488h-62.216279a8.505301 8.505301 0 0 1-6.038764-2.509064 22.666628 22.666628 0 0 0-13.39585-6.251397 13.183217 13.183217 0 0 0-10.078782 5.698552 8.505301 8.505301 0 0 1-6.549082 3.061909h-55.709723a8.505301 8.505301 0 0 1-6.804241-3.402121 8.505301 8.505301 0 0 0-6.293923-2.424011 22.15631 22.15631 0 0 0-11.652263 4.252651 8.505301 8.505301 0 0 1-4.720442 1.445901h-85.053013a8.505301 8.505301 0 0 1-7.612244-4.720442c-3.65728-7.272033-11.737316-17.393341-17.265762-17.393341-2.806749 0-5.698552 3.019382-7.612244 5.613499a8.505301 8.505301 0 0 1-6.804242 3.40212 6.08129 6.08129 0 0 1-1.233268 0c-14.926804-2.168852-366.238273-54.90172-413.14501-205.700711a8.88804 8.88804 0 0 1-0.510318-4.252651 31.724774 31.724774 0 0 1 29.768555-26.53654 9.781096 9.781096 0 0 1 1.913692 0 7.994983 7.994983 0 0 1 4.040019 1.063163c23.85737 13.480903 74.548966 33.383308 180.780178 51.627179 111.802185 19.221981 230.408612 23.261999 310.230864 23.261999 76.547712 0 129.493212-3.65728 130.00353-3.699807 4.252651-0.297686 418.545876-32.958042 481.995424-61.493328a9.015619 9.015619 0 0 1 1.70106-0.595371c2.636643-0.552845 262.643703-55.794776 317.630476-68.722834l3.487174-0.85053c37.97617-8.930566 108.655224-25.515904 172.955301-25.515904 37.721011 0 68.467675 5.826131 91.389462 17.265761C1804.086544 667.670403 1854.182768 676.175704 1907.085742 676.175704c73.783489 0 138.211146-15.862387 172.35993-42.526506a8.505301 8.505301 0 0 1 7.867404-1.360848c14.926804 4.933075 48.352638 22.453995 41.846082 78.971722 16.032493 18.62661 68.382622 81.991104 65.065555 111.759659a7.654771 7.654771 0 0 1-0.765477 2.721696c-1.403375 2.934329-34.531523 71.487057-80.290044 79.864779-7.484665 3.869912-45.03557 22.581575-76.547712 23.261999-9.228252 3.784859-56.007409 22.836734-68.467675 25.983696-1.871166 0.425265-43.079351 9.866149-63.789759 10.078782a337.745514 337.745514 0 0 1-40.442708 2.891802 96.237484 96.237484 0 0 1-27.684756-3.104435 124.049819 124.049819 0 0 0-17.265761-1.445901 37.635958 37.635958 0 0 0-8.505301 0.72295 8.505301 8.505301 0 0 1-8.505302 7.484666h-65.023028a8.505301 8.505301 0 0 1-5.996237-2.509064l-7.357086-7.314559h-27.939915l-4.25265 6.038764a8.505301 8.505301 0 0 1-7.0594 3.784859H1628.792284a8.505301 8.505301 0 0 1-5.996237-2.509064l-7.357086-7.314559h-38.8267l-7.357086 7.357085a8.505301 8.505301 0 0 1-5.911184 2.509064c-1.190742 0-127.622046 1.445901-212.122214 1.445901z" fill="#FFFFFF"/><path d="M2084.633906 640.410912c13.948694 4.592863 43.164404 20.667882 35.637213 73.613383 0 0 68.765361 78.63151 65.490819 108.102379 0 0-32.74541 68.807887-75.314442 75.356969 0 0-42.526506 22.921787-75.35697 22.921787 0 0-55.709723 22.921787-68.807887 26.238855 0 0-42.526506 9.823623-62.258805 9.823623a327.454099 327.454099 0 0 1-39.80481 2.891802 89.007978 89.007978 0 0 1-25.728537-2.891802 133.448177 133.448177 0 0 0-19.221981-1.658534c-9.440884 0-18.413977 1.658534-17.010602 8.207616h-65.320714l-9.823623-9.823623h-36.019951l-6.549082 9.823623H1628.792284l-9.823623-9.823623h-45.843574l-9.823623 9.823623s-126.686463 1.445901-212.079687 1.445901c-42.526506 0-75.10181-0.382739-76.207499-1.445901 0 0-8.717934-13.098164-21.263254-13.098164-6.336449 0-13.608482 3.274541-21.263253 13.098164h-209.655676s-11.652263-13.098164-26.196328-13.098164c-7.272033 0-15.309542 3.274541-22.921787 13.098164h-52.520236s-7.272033-10.206362-17.946185-10.206362c-5.35834 0-11.524683 2.55159-18.073766 10.206362h-81.906051a26.196328 26.196328 0 0 0-16.032493-7.314559 17.010603 17.010603 0 0 0-13.480902 7.314559h-62.216279a31.512141 31.512141 0 0 0-19.434614-8.76046 21.263253 21.263253 0 0 0-16.627864 8.76046h-55.709723a17.010603 17.010603 0 0 0-13.098164-5.826132 29.768554 29.768554 0 0 0-16.372705 5.826132h-85.053013s-11.056892-22.113783-24.878006-22.113783c-4.592863 0-9.525937 2.466537-14.416486 9.015619 0 0-360.369615-52.435182-406.255715-199.87458 0 0 3.274541-19.647246 22.921787-19.647246v-0.212633c26.706646 15.139436 79.141828 34.701629 183.501875 52.647815 109.845966 18.881769 225.943328 23.347052 311.634239 23.347052 77.90856 0 130.683954-3.699806 130.683954-3.699806s419.311353-32.787936 484.802173-62.258805c0 0 262.090859-55.667197 317.800582-68.807887 37.12564-8.505301 109.208068-26.196328 174.358676-26.196328 32.61783 0 63.577127 4.252651 87.604603 16.372705 28.747918 14.373959 79.864779 23.00684 134.086075 23.00684 66.383876 0 137.403142-12.757952 177.548164-44.185041m0-17.010602a17.010603 17.010603 0 0 0-10.418994 3.572226c-32.702883 25.515904-95.174321 40.612814-167.12917 40.612814-51.839811 0-100.320029-8.122563-126.47383-21.263253-24.155056-12.035001-56.177515-18.158818-95.216848-18.158818-65.278187 0-136.595139 16.79797-174.911521 25.856115l-3.487173 0.808004c-54.859193 12.757952-314.696147 68.04241-317.417844 68.722834a19.136928 19.136928 0 0 0-3.444647 1.10569c-51.542126 23.219472-363.388997 51.754758-479.2312 60.812904-0.382739 0-53.030553 3.65728-129.323106 3.657279-79.439514 0-197.535622-3.997492-308.742437-23.134419-105.040471-18.031239-154.796483-37.508379-178.015955-50.649069a17.010603 17.010603 0 0 0-8.505302-2.211379 18.116292 18.116292 0 0 0-3.40212 0.340212 40.187549 40.187549 0 0 0-36.232584 33.766046 17.010603 17.010603 0 0 0 0.510318 7.824878c20.752935 66.681562 98.576442 122.646444 231.259142 166.321166A1239.987873 1239.987873 0 0 0 463.566009 966.716796a16.117546 16.117546 0 0 0 2.466538 0.212632 17.010603 17.010603 0 0 0 13.608482-6.804241 8.505301 8.505301 0 0 1 1.275795-1.530954 41.293238 41.293238 0 0 1 9.228252 12.077528 17.010603 17.010603 0 0 0 15.181962 9.355831h85.053013a17.308288 17.308288 0 0 0 9.440885-2.849276 13.906168 13.906168 0 0 1 6.93182-2.976855h0.340212a17.010603 17.010603 0 0 0 12.757952 5.826131h55.709723a17.010603 17.010603 0 0 0 12.970585-6.166343c0.85053-0.97811 2.381484-2.636643 3.572226-2.636643a14.841751 14.841751 0 0 1 7.527192 3.912438 15.607228 15.607228 0 0 0 11.907422 4.848022h62.216279a17.010603 17.010603 0 0 0 13.310796-6.378976 3.146961 3.146961 0 0 1 0.680424-0.765477 13.013111 13.013111 0 0 1 3.572227 2.253905 15.81986 15.81986 0 0 0 11.949948 4.890548h81.906051a17.010603 17.010603 0 0 0 12.757952-5.953711c3.317067-3.869912 5.188234-4.252651 5.188234-4.252651a10.333941 10.333941 0 0 1 4.252651 3.189488 16.032493 16.032493 0 0 0 13.778588 7.016874h52.435182a17.010603 17.010603 0 0 0 13.39585-6.591609c3.402121-4.252651 6.591608-6.506555 9.525937-6.506555a23.474632 23.474632 0 0 1 13.565956 7.484665 17.010603 17.010603 0 0 0 12.757952 5.613499h209.655676a17.010603 17.010603 0 0 0 13.565956-6.549082c4.040018-5.145707 6.889294-6.506555 7.824877-6.506556 1.786113 0 5.485919 3.104435 7.314559 5.656026a11.056892 11.056892 0 0 0 1.998746 2.424011c5.656025 5.656025 11.141945 5.741078 34.021205 6.123817 12.757952 0 30.874244 0.340212 54.008663 0.340212 84.542695 0 211.016525-1.445901 212.29232-1.445902a17.350815 17.350815 0 0 0 11.822369-4.975601l4.848021-4.848022H1611.781682l4.848021 4.848022a17.010603 17.010603 0 0 0 12.035002 4.975601h55.709723a17.010603 17.010603 0 0 0 14.1188-7.569718l1.530954-2.253905h19.859879l4.848022 4.848022a17.010603 17.010603 0 0 0 12.035001 4.975601h65.533346a17.010603 17.010603 0 0 0 13.39585-6.549082 13.565956 13.565956 0 0 0 1.105689-1.616007h2.296431a122.94413 122.94413 0 0 1 15.394596 1.233269 104.572679 104.572679 0 0 0 29.555922 3.317067 337.830567 337.830567 0 0 0 41.038078-2.934329c21.263253-0.340212 60.387639-9.228252 64.852922-10.248888h0.297686c12.545319-3.146961 55.62467-20.625356 68.04241-25.771063 31.384562-1.275795 67.574619-18.62661 77.355715-23.602211 48.437691-9.908676 81.480786-76.547712 85.053013-84.330062a17.010603 17.010603 0 0 0 1.530954-5.443393c1.190742-10.674153-1.105689-30.321399-34.616576-76.93045-11.779842-16.330178-23.602211-30.789191-30.06624-38.273855 2.126325-23.98495-2.509064-43.972408-13.736061-59.537109a68.595255 68.595255 0 0 0-34.276365-24.878007 17.6485 17.6485 0 0 0-5.358339-0.85053z"/><path d="M1796.304193 857.551254a21.603465 21.603465 0 0 1-2.381484-43.079351l130.258689-14.501539a14.96933 14.96933 0 0 1 2.381484 0 21.645992 21.645992 0 0 1 2.381484 43.121878L1798.89831 857.423674z" fill="#0C1011"/><path d="M1926.477829 808.30556a13.098164 13.098164 0 0 1 1.445901 26.153801l-130.216162 14.501539h-1.488428a13.098164 13.098164 0 0 1-1.445901-26.153802l130.258689-14.501538h1.445901m0-17.010603a28.960551 28.960551 0 0 0-3.317068 0.212633l-130.258689 14.501538a30.108767 30.108767 0 0 0 3.317068 60.047427 29.768554 29.768554 0 0 0 3.359594-0.212632l130.216162-14.501539a30.108767 30.108767 0 0 0-3.317067-60.047427z"/><path d="M1510.908808 869.968994a21.645992 21.645992 0 0 1 0-43.249457h114.821568a21.645992 21.645992 0 0 1 0 43.249457z" fill="#0C1011"/><path d="M1625.56027 835.224838a13.14069 13.14069 0 0 1 0 26.238855h-114.821568a13.14069 13.14069 0 0 1 0-26.238855h114.821568m0-17.010602h-114.821568a30.151293 30.151293 0 0 0 0 60.260059h114.821568a30.151293 30.151293 0 0 0 0-60.260059z"/><path d="M609.942244 529.246625a8.505301 8.505301 0 0 1-5.103181-1.701061l-26.196328-19.689772a8.505301 8.505301 0 0 1-2.891802-3.954965l-3.784859-10.631627a8.505301 8.505301 0 0 1 5.103181-10.844259c34.531523-12.460266 41.590923-18.328924 42.951771-19.817352a8.505301 8.505301 0 0 1 2.80675-2.041272C813.218945 373.897297 1102.271609 239.173325 1118.474208 223.140832l0.510318-0.510318c25.175692-21.263253 62.428911-55.497091 66.383876-65.448294a8.88804 8.88804 0 0 1 2.253905-3.189488c0.425265-0.382739 10.461521-9.270778 22.87926-18.116291a8.505301 8.505301 0 0 1 4.933075-1.573481 8.930566 8.930566 0 0 1 2.381484 0.340212l185.968413 54.518981a8.505301 8.505301 0 0 1 5.315813 4.592863l14.671645 31.852353a8.505301 8.505301 0 0 1-1.488428 9.355831l-49.330747 52.435183a8.505301 8.505301 0 0 1-5.741079 2.67917L1246.053727 296.414002l-43.547143 46.779157a8.505301 8.505301 0 0 1-6.20887 2.721697h-75.271916a7.739824 7.739824 0 0 1-2.211378-0.340212l-36.487743-9.951203a15.692281 15.692281 0 0 0-4.805495-0.893057 5.741078 5.741078 0 0 0-3.784859 1.318322l34.021205 13.055638a8.505301 8.505301 0 0 1 3.699806 13.14069l-32.787936 42.526506a8.505301 8.505301 0 0 1-5.783605 3.274541l-85.053013 9.440885-23.98495 30.023713a8.505301 8.505301 0 0 1-6.676661 3.189488l-62.684071-3.317067a8.505301 8.505301 0 0 1-3.359594-0.85053l-39.294492-19.689773a7.90993 7.90993 0 0 0-3.274541-0.935583h-0.425265l13.523429 13.480903a8.505301 8.505301 0 0 1 0.765478 11.141944l-29.470869 39.294492a8.505301 8.505301 0 0 1-6.251397 3.402121l-96.237484 6.421502-31.001823 18.584084a8.505301 8.505301 0 0 1-4.252651 1.233268h-48.054952l-34.744155 9.483411a9.908676 9.908676 0 0 1-2.466538 0.297686z" fill="#535459"/><path d="M1215.264536 142.808261l185.925886 54.476455 14.714171 31.852353-49.160641 52.435182-124.475084 6.549082-45.886101 49.160642H1121.025798L1085.005847 327.458352a23.559685 23.559685 0 0 0-7.484665-1.318322c-13.055637 0-15.437122 14.459012-15.437122 14.459012l42.526506 16.372705-32.745409 42.526507-88.455134 9.823623-26.196328 32.958042-62.216279-3.274541-39.337018-19.689772a16.117546 16.117546 0 0 0-7.0594-1.82864 15.564701 15.564701 0 0 0-12.757952 8.505301l19.647246 19.647246-29.300763 39.166912-98.278756 6.549082-32.787937 19.689773H646.004722l-36.062478 9.823623-26.196328-19.689773-3.784859-10.631626c24.452741-8.845513 41.293238-16.500284 46.396419-22.113783 0 0 475.021076-216.204758 497.942863-239.169072 0 0 62.258805-52.392656 68.807887-68.765361 0 0 9.951202-8.88804 22.15631-17.563447m0-17.010603a17.010603 17.010603 0 0 0-9.866149 3.146962c-12.757952 9.143199-23.134419 18.286398-23.559685 18.669136a17.010603 17.010603 0 0 0-4.50781 6.421502c-3.954965 8.207616-36.27511 38.784174-63.789759 62.0887l-0.893057 0.808003c-21.518412 18.116292-313.760564 154.243639-493.307474 235.894531a17.010603 17.010603 0 0 0-5.485919 3.954965c-0.85053 0.765477-7.484665 6.038764-39.634704 17.6485a17.010603 17.010603 0 0 0-10.248888 21.688519l3.784859 10.631626a17.010603 17.010603 0 0 0 5.826131 7.90993l26.196328 19.689773a17.010603 17.010603 0 0 0 10.206362 3.40212 17.988712 17.988712 0 0 0 4.507809-0.595371l34.021205-9.228252h46.779157a17.010603 17.010603 0 0 0 8.760461-2.42401l29.258236-17.563448 93.983579-6.251396a17.010603 17.010603 0 0 0 12.502793-6.761714l29.470869-39.294492a17.223235 17.223235 0 0 0 3.359594-8.930567l14.756698 7.357086a17.010603 17.010603 0 0 0 6.719188 1.786113l62.216279 3.274541h0.893056a17.010603 17.010603 0 0 0 13.310797-6.378976l21.773571-27.25949 81.480786-9.058146a17.010603 17.010603 0 0 0 11.609737-6.549082l32.745409-42.526507a17.010603 17.010603 0 0 0 3.317068-13.013111h74.931704a17.010603 17.010603 0 0 0 12.460267-5.741078l41.165658-44.099987 117.628316-6.20887a17.010603 17.010603 0 0 0 11.524684-5.35834l49.118115-52.392656a17.010603 17.010603 0 0 0 3.061908-18.754189l-14.671645-31.852353a17.010603 17.010603 0 0 0-10.674153-9.185726l-185.925886-54.391401a17.010603 17.010603 0 0 0-4.805495-0.680424z"/><path d="M632.906558 502.029661a4.252651 4.252651 0 0 1-2.849276-7.399613l32.74541-29.470868a4.252651 4.252651 0 0 1 2.849276-1.10569 4.252651 4.252651 0 0 1 1.020636 0l39.337018 9.823623a4.252651 4.252651 0 0 1 2.509064 6.506556l-13.098164 19.647246a4.252651 4.252651 0 0 1-3.572227 1.871166z" fill="#0F1014"/><path d="M665.651968 468.306141l39.294491 9.823623-13.098164 19.647246h-58.941737l32.74541-29.470869m0-8.505301a8.505301 8.505301 0 0 0-5.698552 2.168852l-32.74541 29.513395a8.505301 8.505301 0 0 0-2.253905 9.355831 8.505301 8.505301 0 0 0 7.952457 5.443393h58.941737a8.505301 8.505301 0 0 0 7.101927-3.784859l13.098164-19.647246a8.505301 8.505301 0 0 0 0.85053-7.78235 8.505301 8.505301 0 0 0-5.868658-5.188234l-39.337018-9.823623a8.505301 8.505301 0 0 0-2.041272-0.255159z"/><path d="M763.930724 475.833333a4.252651 4.252651 0 0 1-2.636644-0.935583l-16.415231-13.098164a4.252651 4.252651 0 0 1-0.680424-5.911185l22.921787-29.513395a4.252651 4.252651 0 0 1 3.359594-1.616008 4.252651 4.252651 0 0 1 1.275795 0l62.258805 19.647246a4.252651 4.252651 0 0 1 2.764223 2.764223 4.252651 4.252651 0 0 1-0.637897 3.869912l-9.823623 13.098164a4.252651 4.252651 0 0 1-2.721697 1.658534l-58.941738 9.823623z" fill="#0F1014"/><path d="M770.479806 429.011649l62.258805 19.647246-9.823623 13.098164-58.984264 9.823623-16.372705-13.098164 22.921787-29.470869m0-8.505301a8.505301 8.505301 0 0 0-6.719188 3.274541l-22.921787 29.470869a8.505301 8.505301 0 0 0 1.403375 11.864895l16.372704 13.098164a8.505301 8.505301 0 0 0 5.315814 1.871166 7.824877 7.824877 0 0 0 1.403374 0l58.984265-9.823623a8.505301 8.505301 0 0 0 5.400866-3.274541l9.823623-13.098164a8.505301 8.505301 0 0 0-4.252651-13.225743L773.031396 421.016666a8.505301 8.505301 0 0 0-2.55159-0.382739z"/><path d="M891.722875 429.989759a4.252651 4.252651 0 0 1-3.019381-1.275795l-19.647246-19.647246a4.252651 4.252651 0 0 1-0.255159-5.783605l19.689772-22.921787a4.252651 4.252651 0 0 1 3.232014-1.488428 4.762969 4.762969 0 0 1 1.318322 0l68.807888 22.921787a4.252651 4.252651 0 0 1 2.679169 2.67917 4.252651 4.252651 0 0 1-0.467791 3.742332l-13.140691 19.647246a4.252651 4.252651 0 0 1-3.5297 1.913693z" fill="#0F1014"/><path d="M891.722875 383.125549l68.765361 22.921787-13.098164 19.689772h-55.667197l-19.689772-19.689772 19.689772-22.921787m0-8.505302a8.505301 8.505301 0 0 0-6.464029 2.976856l-19.647245 22.921787a8.505301 8.505301 0 0 0 0.425265 11.56721l19.647246 19.647246a8.505301 8.505301 0 0 0 6.038763 2.509063h55.667197a8.505301 8.505301 0 0 0 7.101927-3.827385l13.098164-19.647246a8.505301 8.505301 0 0 0 0.97811-7.484665 8.505301 8.505301 0 0 0-5.35834-5.273287l-68.807888-22.964314a8.505301 8.505301 0 0 0-2.67917-0.425265z"/><path d="M986.642038 400.476363a4.252651 4.252651 0 0 1-3.019382-1.233268l-26.196328-26.196328a4.252651 4.252651 0 0 1-1.233269-3.274541 4.252651 4.252651 0 0 1 1.573481-3.061909l32.74541-26.196328a4.252651 4.252651 0 0 1 2.67917-0.935583 5.273287 5.273287 0 0 1 1.148215 0l81.906052 22.964314a4.252651 4.252651 0 0 1 2.806749 2.594117 4.252651 4.252651 0 0 1-0.425265 3.827385l-13.098164 19.689773a4.252651 4.252651 0 0 1-3.019382 1.828639l-75.314443 9.823623z" fill="#0F1014"/><path d="M993.276173 343.831057l81.906051 22.921787-13.098164 19.647246L986.642038 396.223713 960.488236 369.984858l32.787937-26.196328m0-8.505301a8.505301 8.505301 0 0 0-5.315814 1.82864l-32.787936 26.238854a8.505301 8.505301 0 0 0-0.680424 12.757952l26.196328 26.238855a8.505301 8.505301 0 0 0 6.038764 2.466537h1.105689L1063.189749 394.820338a8.505301 8.505301 0 0 0 5.953711-3.572227l13.098164-19.647246a8.505301 8.505301 0 0 0-4.762969-12.757951l-81.906051-23.219473a8.505301 8.505301 0 0 0-2.296431-0.297685z"/><path d="M1124.300339 331.711002a4.252651 4.252651 0 0 1-2.594117-0.893056l-29.470869-22.921787a4.252651 4.252651 0 0 1 0-6.804241l49.118115-36.019951a4.252651 4.252651 0 0 1 2.509064-0.808004 4.252651 4.252651 0 0 1 1.616007 0.297686l65.49082 26.196328a4.252651 4.252651 0 0 1 2.594117 4.762969 4.252651 4.252651 0 0 1-2.849276 3.232014 115.672097 115.672097 0 0 0-9.355832 11.609736c-9.015619 11.992475-11.482157 14.799224-14.884277 14.799225-2.67917 0-38.273856 3.954965-61.791014 6.549081z" fill="#0F1014"/><path d="M1143.990111 268.474087l65.533347 26.196328c-3.274541 0-19.647246 26.196328-22.921787 26.196328S1124.300339 327.458352 1124.300339 327.458352l-29.470869-22.921787L1143.990111 268.474087m0-8.505301a8.505301 8.505301 0 0 0-5.018127 1.616007L1089.811342 297.689797a8.505301 8.505301 0 0 0-0.212632 13.565956l29.470869 22.921787a8.505301 8.505301 0 0 0 5.23076 1.786113h0.935583c22.02873-2.424011 58.176261-6.378976 61.450802-6.506555 5.741078 0 9.100672-4.252651 18.116292-16.500285 2.636643-3.5297 6.506555-8.505301 8.292668-10.504047a8.505301 8.505301 0 0 0 4.720442-6.08129 8.505301 8.505301 0 0 0-5.23076-9.525938l-65.49082-26.196328a8.165089 8.165089 0 0 0-3.189488-0.595371z"/><path d="M1235.719786 272.726738a4.252651 4.252651 0 0 1-2.041273-0.510318l-42.526506-22.921787a4.252651 4.252651 0 0 1-2.126325-2.806749 4.252651 4.252651 0 0 1 0.680424-3.487174l36.062477-49.118115a4.252651 4.252651 0 0 1 3.402121-1.743586h0.893056l157.348074 32.745409a4.252651 4.252651 0 0 1 2.466537 6.804241l-22.921787 29.470869a4.252651 4.252651 0 0 1-3.019382 1.616008z" fill="#0F1014"/><path d="M1229.043124 196.391659l157.348074 32.74541-22.921787 29.513396-127.579519 9.823622-42.526507-22.964313L1229.043124 196.391659m0-8.505301a8.505301 8.505301 0 0 0-6.846767 3.487173l-36.019951 49.118115a8.505301 8.505301 0 0 0 2.806749 12.757952l42.526507 22.921787a8.505301 8.505301 0 0 0 4.040018 1.020636h0.637897l127.579519-9.823623a8.505301 8.505301 0 0 0 6.081291-3.274541l22.921787-29.470869a8.505301 8.505301 0 0 0 1.275795-8.165089 8.505301 8.505301 0 0 0-6.251396-5.400866l-157.348074-32.74541a7.824877 7.824877 0 0 0-1.743587 0z"/><path d="M1238.10127 568.796276c-140.082312 0-254.7763-80.290044-259.411689-83.734691a8.505301 8.505301 0 0 1-3.5297-7.782351 8.505301 8.505301 0 0 1 5.018128-6.931821l111.37692-49.118115a8.207616 8.207616 0 0 1 3.444647-0.72295 8.505301 8.505301 0 0 1 6.20887 2.67917c67.021774 71.359478 186.308624 81.991104 251.459232 81.991104a509.212388 509.212388 0 0 0 55.794777-2.721696h1.063162a8.505301 8.505301 0 0 1 4.550336 15.649754 321.202703 321.202703 0 0 1-175.974683 50.691596z" fill="#54595D"/><path d="M1094.82947 429.011649c68.382622 72.805379 187.329261 84.670274 257.540523 84.670274a519.929067 519.929067 0 0 0 56.815412-2.764223 312.527295 312.527295 0 0 1-171.211715 49.373274c-138.976623 0-254.64872-82.16121-254.64872-82.16121l111.37692-49.118115M1094.489258 412.001047a17.010603 17.010603 0 0 0-6.889294 1.445901l-111.37692 49.118115a17.010603 17.010603 0 0 0-2.976856 29.428342c4.890548 3.487174 121.753388 85.308172 264.51487 85.308172a329.708004 329.708004 0 0 0 180.099755-51.882338 17.010603 17.010603 0 0 0-8.080037-31.512141h-3.061908a511.934084 511.934084 0 0 1-54.561508 2.636643c-63.78976 0-180.439967-10.291415-245.292889-79.311934a17.010603 17.010603 0 0 0-12.375213-5.35834z"/><path d="M1101.463605 637.349004a8.505301 8.505301 0 0 1-8.505301-9.440885l22.921787-212.930217a8.505301 8.505301 0 0 1 5.10318-6.719188l85.053013-36.019951a8.505301 8.505301 0 0 1 3.317068-0.680424 8.505301 8.505301 0 0 1 5.060654 1.658534 8.505301 8.505301 0 0 1 3.40212 7.739824L1195.021919 593.716808a8.505301 8.505301 0 0 1-5.145707 6.931821l-85.053013 36.019951a8.505301 8.505301 0 0 1-3.359594 0.680424z" fill="#6B7074"/><path d="M1209.480931 379.851008l-22.964313 212.930217-85.053013 36.062478 22.921787-212.972744 85.053013-36.019951m0-17.010603a16.542811 16.542811 0 0 0-6.634135 1.360848l-85.053013 36.019951a17.010603 17.010603 0 0 0-10.248888 13.863641L1084.453002 627.015063a17.010603 17.010603 0 0 0 23.559685 17.478394l85.053013-36.019951a17.010603 17.010603 0 0 0 10.291414-13.863641l22.921787-212.930218a17.010603 17.010603 0 0 0-17.010602-18.839242z m0 34.021205z"/><path d="M1867.185336 361.441402a3.274541 26.196328 65 1 0 47.483872-22.142093 3.274541 26.196328 65 1 0-47.483872 22.142093Z"/><path d="M1837.703489 302.450144a3.274541 26.196328 65 1 0 47.483872-22.142093 3.274541 26.196328 65 1 0-47.483872 22.142093Z"/><path d="M1932.734645 259.909079a3.274541 26.196328 65 1 0 47.483872-22.142094 3.274541 26.196328 65 1 0-47.483872 22.142094Z"/><path d="M1782.015315 407.307145a3.274541 26.196328 65 1 0 47.483872-22.142093 3.274541 26.196328 65 1 0-47.483872 22.142093Z"/><path d="M1742.726622 374.545365a3.274541 26.196328 65 1 0 47.483872-22.142093 3.274541 26.196328 65 1 0-47.483872 22.142093Z"/><path d="M1700.085306 453.187243a3.274541 26.196328 65 1 0 47.483872-22.142093 3.274541 26.196328 65 1 0-47.483872 22.142093Z"/><path d="M1664.06895 423.673051a3.274541 26.196328 65 1 0 47.483872-22.142093 3.274541 26.196328 65 1 0-47.483872 22.142093Z"/><path d="M1611.649341 499.032224a3.274541 26.196328 65 1 0 47.483872-22.142093 3.274541 26.196328 65 1 0-47.483872 22.142093Z"/><path d="M1588.726969 459.709579a3.274541 26.196328 65 1 0 47.483872-22.142094 3.274541 26.196328 65 1 0-47.483872 22.142094Z"/><path d="M1533.028605 544.932906a3.274541 26.196328 65 1 0 47.483872-22.142093 3.274541 26.196328 65 1 0-47.483872 22.142093Z"/><path d="M1526.435796 502.319728a3.274541 26.196328 65 1 0 47.483872-22.142094 3.274541 26.196328 65 1 0-47.483872 22.142094Z"/><path d="M1451.096011 538.357654a3.274541 26.196328 65 1 0 47.483872-22.142093 3.274541 26.196328 65 1 0-47.483872 22.142093Z"/><path d="M1451.101606 587.466986a3.274541 26.196328 65 1 0 47.483872-22.142093 3.274541 26.196328 65 1 0-47.483872 22.142093Z"/><path d="M1356.12613 623.557033a3.274541 26.196328 65 1 0 47.483872-22.142093 3.274541 26.196328 65 1 0-47.483872 22.142093Z"/><path d="M1336.453324 672.678928a3.274541 26.196328 65 1 0 47.483872-22.142093 3.274541 26.196328 65 1 0-47.483872 22.142093Z"/><path d="M1247.989018 666.105482a3.274541 26.196328 65 1 0 47.483872-22.142093 3.274541 26.196328 65 1 0-47.483872 22.142093Z"/><path d="M1208.664377 633.36487a3.274541 26.196328 65 1 0 47.483872-22.142093 3.274541 26.196328 65 1 0-47.483872 22.142093Z"/><path d="M1130.067017 685.736756a3.274541 26.196328 65 1 0 47.483872-22.142093 3.274541 26.196328 65 1 0-47.483872 22.142093Z"/><path d="M1061.274305 711.976018a3.274541 26.196328 65 1 0 47.483872-22.142094 3.274541 26.196328 65 1 0-47.483872 22.142094Z"/><path d="M999.016695 571.091094a3.274541 26.196328 65 1 0 47.483872-22.142094 3.274541 26.196328 65 1 0-47.483872 22.142094Z"/><path d="M949.872019 630.083132a3.274541 26.196328 65 1 0 47.483872-22.142093 3.274541 26.196328 65 1 0-47.483872 22.142093Z"/><path d="M969.538637 689.01869a3.274541 26.196328 65 1 0 47.483872-22.142094 3.274541 26.196328 65 1 0-47.483872 22.142094Z"/><path d="M871.248495 666.105083a3.274541 26.196328 65 1 0 47.483872-22.142093 3.274541 26.196328 65 1 0-47.483872 22.142093Z"/><path d="M792.634957 643.179312a3.274541 26.196328 65 1 0 47.483872-22.142093 3.274541 26.196328 65 1 0-47.483872 22.142093Z"/><path d="M933.488528 551.467212a3.274541 26.196328 65 1 0 47.483872-22.142093 3.274541 26.196328 65 1 0-47.483872 22.142093Z"/><path d="M871.259668 479.387573a3.274541 26.196328 65 1 0 47.483872-22.142094 3.274541 26.196328 65 1 0-47.483872 22.142094Z"/><path d="M845.021017 538.36425a3.274541 26.196328 65 1 0 47.483872-22.142094 3.274541 26.196328 65 1 0-47.483872 22.142094Z"/><path d="M782.809342 580.911521a3.274541 26.196328 65 1 0 47.483872-22.142094 3.274541 26.196328 65 1 0-47.483872 22.142094Z"/><path d="M723.796906 571.122427a3.274541 26.196328 65 1 0 47.483872-22.142094 3.274541 26.196328 65 1 0-47.483872 22.142094Z"/><path d="M655.020768 584.219209a3.274541 26.196328 65 1 0 47.483872-22.142093 3.274541 26.196328 65 1 0-47.483872 22.142093Z"/><path d="M576.399854 630.076562a3.274541 26.196328 65 1 0 47.483872-22.142093 3.274541 26.196328 65 1 0-47.483872 22.142093Z"/><path d="M501.039884 623.539459a3.274541 26.196328 65 1 0 47.483872-22.142094 3.274541 26.196328 65 1 0-47.483872 22.142094Z"/><path d="M540.377903 551.453037a3.274541 26.196328 65 1 0 47.483872-22.142093 3.274541 26.196328 65 1 0-47.483872 22.142093Z"/><path d="M569.826009 584.197837a3.274541 26.196328 65 1 0 47.483872-22.142093 3.274541 26.196328 65 1 0-47.483872 22.142093Z"/><path d="M645.202554 544.889577a3.274541 26.196328 65 1 0 47.483872-22.142093 3.274541 26.196328 65 1 0-47.483872 22.142093Z"/><path d="M451.876439 594.034227a3.274541 26.196328 65 1 0 47.483872-22.142093 3.274541 26.196328 65 1 0-47.483872 22.142093Z"/><path d="M360.191094 633.367075a3.274541 26.196328 65 1 0 47.483872-22.142094 3.274541 26.196328 65 1 0-47.483872 22.142094Z"/><path d="M297.914919 630.090728a3.274541 26.196328 65 1 0 47.483872-22.142093 3.274541 26.196328 65 1 0-47.483872 22.142093Z"/><path d="M307.732946 587.487951a3.274541 26.196328 65 1 0 47.483872-22.142093 3.274541 26.196328 65 1 0-47.483872 22.142093Z"/><path d="M232.410718 613.730417a3.274541 26.196328 65 1 0 47.483872-22.142093 3.274541 26.196328 65 1 0-47.483872 22.142093Z"/><path d="M386.373646 584.203831a3.274541 26.196328 65 1 0 47.483872-22.142094 3.274541 26.196328 65 1 0-47.483872 22.142094Z"/><path d="M491.223043 538.372447a3.274541 26.196328 65 1 0 47.483872-22.142093 3.274541 26.196328 65 1 0-47.483872 22.142093Z"/><path d="M864.679643 590.752497a3.274541 26.196328 65 1 0 47.483872-22.142093 3.274541 26.196328 65 1 0-47.483872 22.142093Z"/><path d="M723.803095 630.10909a3.274541 26.196328 65 1 0 47.483872-22.142093 3.274541 26.196328 65 1 0-47.483872 22.142093Z"/><path d="M1474.065512 472.8307a3.274541 26.196328 65 1 0 47.483872-22.142093 3.274541 26.196328 65 1 0-47.483872 22.142093Z"/><path d="M1536.259436 430.203355a3.274541 26.196328 65 1 0 47.483872-22.142093 3.274541 26.196328 65 1 0-47.483872 22.142093Z"/><path d="M1500.279423 354.881944a3.274541 26.196328 65 1 0 47.483872-22.142093 3.274541 26.196328 65 1 0-47.483872 22.142093Z"/><path d="M1444.543538 407.284171a3.274541 26.196328 65 1 0 47.483872-22.142093 3.274541 26.196328 65 1 0-47.483872 22.142093Z"/><path d="M1375.761193 453.200434a3.274541 26.196328 65 1 0 47.483872-22.142093 3.274541 26.196328 65 1 0-47.483872 22.142093Z"/><path d="M1254.545679 463.016063a3.274541 26.196328 65 1 0 47.483872-22.142093 3.274541 26.196328 65 1 0-47.483872 22.142093Z"/><path d="M1316.804501 600.555367a3.274541 26.196328 65 1 0 47.483872-22.142093 3.274541 26.196328 65 1 0-47.483872 22.142093Z"/><path d="M1320.077838 407.283976a3.274541 26.196328 65 1 0 47.483872-22.142093 3.274541 26.196328 65 1 0-47.483872 22.142093Z"/><path d="M1336.461929 308.997039a3.274541 26.196328 65 1 0 47.483872-22.142093 3.274541 26.196328 65 1 0-47.483872 22.142093Z"/><path d="M1277.476664 354.887132a3.274541 26.196328 65 1 0 47.483872-22.142093 3.274541 26.196328 65 1 0-47.483872 22.142093Z"/><path d="M1208.66458 335.203947a3.274541 26.196328 65 1 0 47.483872-22.142094 3.274541 26.196328 65 1 0-47.483872 22.142094Z"/><path d="M669.734512 482.212309a12.757952 12.757952 0 0 1-12.757952-12.757952V407.748396a28.322653 28.322653 0 0 1 39.209439-26.111275l57.070572 23.772317-11.397104-45.715994a28.280127 28.280127 0 0 1 39.464598-32.490251l113.035454 52.860447-21.263253-61.705961a28.280127 28.280127 0 0 1 42.739139-32.575303l78.588983 53.881083-24.367688-73.188117a28.280127 28.280127 0 0 1 36.913008-35.382054L1126.979509 276.851809l-30.278873-72.295061a28.280127 28.280127 0 0 1 35.42458-37.678484l149.905935 52.265076a12.757952 12.757952 0 1 1-8.505301 24.112529l-149.905935-52.307603a2.721696 2.721696 0 0 0-2.976856 0.722951 2.636643 2.636643 0 0 0-0.510318 3.019382l41.76103 99.597078a12.757952 12.757952 0 0 1-16.287652 17.010602l-147.77961-56.390147a2.67917 2.67917 0 0 0-2.934329 0.595371 2.636643 2.636643 0 0 0-0.722951 2.934329l36.40269 109.208068a12.757952 12.757952 0 0 1-19.307034 14.544066l-109.931019-75.35697a2.764223 2.764223 0 0 0-4.252651 3.189488l31.214456 90.241247a12.757952 12.757952 0 0 1-17.478394 15.734807l-140.337471-65.703452a2.509064 2.509064 0 0 0-2.934329 0.382738 2.55159 2.55159 0 0 0-0.935583 2.80675l17.563447 70.381368a12.757952 12.757952 0 0 1-17.265762 14.841751l-80.545203-33.553414a2.636643 2.636643 0 0 0-2.594117 0.255159 2.67917 2.67917 0 0 0-1.275795 2.338958v61.705961a12.757952 12.757952 0 0 1-12.757952 12.757952z"/></svg>